<?xml version="1.0" standalone="no"?><!-- Generator: Gravit.io --><svg xmlns="http://www.w3.org/2000/svg" xmlns:xlink="http://www.w3.org/1999/xlink" style="isolation:isolate" viewBox="0 0 64 64" width="64" height="64"><defs><clipPath id="_clipPath_mLl0zR7cD6jKh1hxcNEK99yK4hY3VdlP"><rect width="64" height="64"/></clipPath></defs><g clip-path="url(#_clipPath_mLl0zR7cD6jKh1hxcNEK99yK4hY3VdlP)"><linearGradient id="_lgradient_0" x1="50.54955650291163%" y1="0.7224788042046626%" x2="50.54955650291164%" y2="100.09968653885383%"><stop offset="0%" stop-opacity="1" style="stop-color:rgb(0,255,255)"/><stop offset="100%" stop-opacity="1" style="stop-color:rgb(0,255,0)"/></linearGradient><rect x="0" y="0" width="64" height="64" transform="matrix(1,0,0,1,0,0)" fill="url(#_lgradient_0)"/><path d=" M 17.939 31.551 C 17.939 20.209 24.239 11 32 11 C 39.761 11 46.061 20.209 46.061 31.551 C 46.061 42.893 39.761 52.102 32 52.102 C 24.239 52.102 17.939 42.893 17.939 31.551 Z " fill="rgb(255,241,219)"/><path d=" M 28.214 51.561 C 28.214 47.084 29.911 43.449 32 43.449 C 34.089 43.449 35.786 47.084 35.786 51.561 C 35.786 56.038 34.089 59.673 32 59.673 C 29.911 59.673 28.214 56.038 28.214 51.561 Z " fill="rgb(255,241,219)"/><path d=" M 60.122 64 C 60.122 58.627 47.521 54.265 32 54.265 C 16.479 54.265 3.878 58.627 3.878 64 L 60.122 64 Z " fill="rgb(88,76,76)"/><path d=" M 21 43 L 16 42 L 14 36 L 9 30 L 13 24 L 11 17 L 19 10 L 23 3 L 38 4 L 45 11 L 47 14.475 L 47 18 L 49 20 L 52 25 L 51 33 L 47 38 L 45 38 L 42 23 L 34 22 L 32 17 L 23 20 L 20 28 L 21 43 Z " fill="rgb(34,34,34)"/></g></svg>