<?xml version="1.0" standalone="no"?><!-- Generator: Gravit.io --><svg xmlns="http://www.w3.org/2000/svg" xmlns:xlink="http://www.w3.org/1999/xlink" style="isolation:isolate" viewBox="0 0 64 64" width="64" height="64"><defs><clipPath id="_clipPath_mIzqtNUyOnJKRp9pWZNWuzIMA7j1JR9u"><rect width="64" height="64"/></clipPath></defs><g clip-path="url(#_clipPath_mIzqtNUyOnJKRp9pWZNWuzIMA7j1JR9u)"><linearGradient id="_lgradient_1" x1="50.54955650291163%" y1="0.7224788042046626%" x2="50.54955650291164%" y2="100.09968653885383%"><stop offset="0%" stop-opacity="1" style="stop-color:rgb(255,255,0)"/><stop offset="100%" stop-opacity="1" style="stop-color:rgb(255,0,0)"/></linearGradient><rect x="0" y="0" width="64" height="64" transform="matrix(1,0,0,1,0,0)" fill="url(#_lgradient_1)"/><path d=" M 22 57 L 17 38 C 16.662 25.68 18.006 17.357 21 13 C 25.981 9.012 31.658 8.022 38 10 C 43.456 16.842 46.476 25.529 47 36 C 46.812 45.73 43.489 54.74 37 63 L 22 57 Z " fill="rgb(43,43,43)"/><path d=" M 20.969 35.276 C 20.969 25.741 25.912 18 32 18 C 38.088 18 43.031 25.741 43.031 35.276 C 43.031 44.81 38.088 52.551 32 52.551 C 25.912 52.551 20.969 44.81 20.969 35.276 Z " fill="rgb(255,215,150)"/><path d=" M 28.214 51.561 C 28.214 47.084 29.911 43.449 32 43.449 C 34.089 43.449 35.786 47.084 35.786 51.561 C 35.786 56.038 34.089 59.673 32 59.673 C 29.911 59.673 28.214 56.038 28.214 51.561 Z " fill="rgb(255,215,150)"/><path d=" M 52 64 C 52 58.627 43.038 54.265 32 54.265 C 20.962 54.265 12 58.627 12 64 L 52 64 Z " fill="rgb(100,110,124)"/><path d=" M 23 17 L 20 35 Q 24.328 31.789 25 25 Q 25.672 18.211 26 31 L 31 22 L 35 24 L 41 23 L 36 13 L 23 17 Z " fill="rgb(43,43,43)"/></g></svg>