<?xml version="1.0" standalone="no"?><!-- Generator: Gravit.io --><svg xmlns="http://www.w3.org/2000/svg" xmlns:xlink="http://www.w3.org/1999/xlink" style="isolation:isolate" viewBox="0 0 64 64" width="64" height="64"><defs><clipPath id="_clipPath_R83U0DvA6jKbLSAgywCe6LuYI4OgAajA"><rect width="64" height="64"/></clipPath></defs><g clip-path="url(#_clipPath_R83U0DvA6jKbLSAgywCe6LuYI4OgAajA)"><linearGradient id="_lgradient_2" x1="50.54955650291163%" y1="0.7224788042046626%" x2="50.54955650291164%" y2="100.09968653885383%"><stop offset="0%" stop-opacity="1" style="stop-color:rgb(153,0,255)"/><stop offset="100%" stop-opacity="1" style="stop-color:rgb(255,0,0)"/></linearGradient><rect x="0" y="0" width="64" height="64" transform="matrix(1,0,0,1,0,0)" fill="url(#_lgradient_2)"/><path d=" M 22.349 42 Q 18.059 39.769 17.118 39 C 16.177 38.231 12.829 33.168 14.503 32 C 16.177 30.832 18.538 27.955 17.99 27 Q 17.442 26.045 17.118 12 Q 23.886 6.67 24.964 7 Q 26.042 7.33 32.81 9 Q 39.362 4.38 39.785 6 C 40.208 7.62 43.554 14.37 43.272 16 C 42.99 17.63 47.465 18.712 47.631 21 C 47.796 23.288 50.627 27.862 47.631 30 Q 44.634 32.138 40.656 35 Q 36.01 22.276 33.682 23 Q 31.354 23.724 24.092 29 L 22.349 42 Z " fill="rgb(49,49,49)"/><path d=" M 35.236 51.341 C 40.403 48.93 44.197 40.978 44.197 31.551 C 44.197 20.209 38.704 11 31.939 11 C 25.173 11 19.68 20.209 19.68 31.551 C 19.68 40.978 23.474 48.93 28.641 51.341 C 28.639 51.413 28.638 51.487 28.638 51.561 C 28.638 56.038 30.117 59.673 31.939 59.673 C 33.76 59.673 35.239 56.038 35.239 51.561 C 35.239 51.487 35.238 51.413 35.236 51.341 Z " fill="rgb(118,96,60)"/><path d=" M 56 64 C 56 58.627 45.246 54.265 32 54.265 C 18.754 54.265 8 58.627 8 64 L 56 64 Z " fill="rgb(143,255,255)"/><path d=" M 44.144 32 L 44.144 29 L 45.887 24 Q 47.547 19.064 45.015 19 Q 42.484 18.936 45.015 16 Q 44.945 13.012 43.272 13 Q 41.599 12.988 38.913 9 Q 34.619 7.51 33.682 8 C 32.745 8.49 30.355 6.204 28.451 8 C 26.548 9.796 23.082 10.204 22.349 10 Q 17.852 11.82 19.734 14 Q 21.616 16.18 17.118 16 Q 15.43 22.1 16.246 24 C 17.062 25.9 18.918 30.846 17.99 32 Q 17.062 33.154 17.99 37 L 20.605 38 L 22.349 33 Q 24.492 23.644 25.836 21 Q 27.18 18.356 31.939 19 Q 36.507 23.116 38.041 24 Q 39.575 24.884 42.4 32 L 44.144 32 Z " fill="rgb(49,49,49)"/></g></svg>