<?xml version="1.0" standalone="no"?><!-- Generator: Gravit.io --><svg xmlns="http://www.w3.org/2000/svg" xmlns:xlink="http://www.w3.org/1999/xlink" style="isolation:isolate" viewBox="0 0 64 64" width="64" height="64"><defs><clipPath id="_clipPath_KlCVs2KxN6ysFuA4MVoMl2C6LvV1wqjj"><rect width="64" height="64"/></clipPath></defs><g clip-path="url(#_clipPath_KlCVs2KxN6ysFuA4MVoMl2C6LvV1wqjj)"><linearGradient id="_lgradient_3" x1="50.54955650291163%" y1="0.7224788042046626%" x2="50.54955650291164%" y2="100.09968653885383%"><stop offset="0%" stop-opacity="1" style="stop-color:rgb(0,255,255)"/><stop offset="100%" stop-opacity="1" style="stop-color:rgb(153,0,255)"/></linearGradient><rect x="0" y="0" width="64" height="64" transform="matrix(1,0,0,1,0,0)" fill="url(#_lgradient_3)"/><path d=" M 27 11 C 25.902 8.908 23.245 11.584 19 19 C 11.161 29.946 10.181 36.966 16 40 C 12.454 45.667 9.131 48.677 6 49 L 9 53 L 21 53 L 53 54 C 57.734 49.597 57.41 47.273 52 47 Q 50.158 46.907 47 42 C 48.402 36.398 47.745 31.075 45 26 C 45.588 22.679 43.931 19.355 40 16 C 38.139 13.267 33.816 11.61 27 11 Z " fill="rgb(111,104,94)"/><path d=" M 20.969 35.276 C 20.969 25.741 25.912 18 32 18 C 38.088 18 43.031 25.741 43.031 35.276 C 43.031 44.81 38.088 52.551 32 52.551 C 25.912 52.551 20.969 44.81 20.969 35.276 Z " fill="rgb(255,244,227)"/><path d=" M 28.214 51.561 C 28.214 47.084 29.911 43.449 32 43.449 C 34.089 43.449 35.786 47.084 35.786 51.561 C 35.786 56.038 34.089 59.673 32 59.673 C 29.911 59.673 28.214 56.038 28.214 51.561 Z " fill="rgb(255,244,227)"/><path d=" M 52 64 C 52 58.627 43.038 54.265 32 54.265 C 20.962 54.265 12 58.627 12 64 L 52 64 Z " fill="rgb(174,133,133)"/><path d=" M 27 17 Q 23.261 25.261 22 25 C 20.739 24.739 19.903 27.489 18 28 C 16.097 28.511 17.52 31.489 20 30 C 22.48 28.511 22.442 31.406 25 28 Q 27.558 24.594 28 27 Q 29.655 31.199 31 30 C 32.345 28.801 31.945 28.971 32 27 C 32.055 25.029 32.173 25.489 34 27 C 35.827 28.511 35.095 29.199 38 29 C 40.905 28.801 44.339 29.955 44 28 C 43.661 26.045 44.66 28.017 43 25 C 41.34 21.983 40.432 20.66 39 19 Q 37.568 17.34 35 16 L 27 17 Z " fill="rgb(111,104,94)"/></g></svg>