<?xml version="1.0" standalone="no"?><!-- Generator: Gravit.io --><svg xmlns="http://www.w3.org/2000/svg" xmlns:xlink="http://www.w3.org/1999/xlink" style="isolation:isolate" viewBox="0 0 64 64" width="64" height="64"><defs><clipPath id="_clipPath_LFPxerIl2EKvZw3KPeRUT926C9XlDY2K"><rect width="64" height="64"/></clipPath></defs><g clip-path="url(#_clipPath_LFPxerIl2EKvZw3KPeRUT926C9XlDY2K)"><linearGradient id="_lgradient_4" x1="50.54955650291163%" y1="0.7224788042046626%" x2="50.54955650291164%" y2="100.09968653885383%"><stop offset="0.43478260869565216%" stop-opacity="1" style="stop-color:rgb(255,255,0)"/><stop offset="97.82608695652173%" stop-opacity="1" style="stop-color:rgb(0,255,0)"/></linearGradient><rect x="0" y="0" width="64" height="64" transform="matrix(1,0,0,1,0,0)" fill="url(#_lgradient_4)"/><path d=" M 20 47 C 16.742 43.144 15.095 37.578 15 30.242 L 18.194 22.791 L 26.71 15.339 Q 31.29 15.369 34.161 13.21 Q 37.033 11.052 39.484 17.468 L 43.742 21.726 L 46.935 28.113 L 48 35.565 L 43 44 L 40.548 31.307 L 20 47 Z " fill="rgb(126,118,104)"/><path d=" M 18.485 35.276 C 18.485 25.741 24.541 18 32 18 C 39.459 18 45.515 25.741 45.515 35.276 C 45.515 44.81 39.459 52.551 32 52.551 C 24.541 52.551 18.485 44.81 18.485 35.276 Z " fill="rgb(255,207,130)"/><path d=" M 27.362 51.561 C 27.362 47.084 29.44 43.449 32 43.449 C 34.56 43.449 36.638 47.084 36.638 51.561 C 36.638 56.038 34.56 59.673 32 59.673 C 29.44 59.673 27.362 56.038 27.362 51.561 Z " fill="rgb(255,207,130)"/><path d=" M 61 64 C 61 58.627 48.006 54.265 32 54.265 C 15.994 54.265 3 58.627 3 64 L 61 64 Z " fill="rgb(47,47,47)"/><path d=" M 22 21 L 20 26 L 17.129 32 L 24 29 L 31 22 L 37 25 L 45.871 26 Q 42.95 20.743 42 21 Q 41.05 21.257 32 17 L 22 21 Z " fill="rgb(126,118,104)"/></g></svg>