<?xml version="1.0" standalone="no"?><!-- Generator: Gravit.io --><svg xmlns="http://www.w3.org/2000/svg" xmlns:xlink="http://www.w3.org/1999/xlink" style="isolation:isolate" viewBox="0 0 64 64" width="64" height="64"><defs><clipPath id="_clipPath_mtHjWtHrJ7XSp5ysdYdUMiK4FsANAWCT"><rect width="64" height="64"/></clipPath></defs><g clip-path="url(#_clipPath_mtHjWtHrJ7XSp5ysdYdUMiK4FsANAWCT)"><linearGradient id="_lgradient_5" x1="50.54955650291163%" y1="0.7224788042046626%" x2="50.54955650291164%" y2="100.09968653885383%"><stop offset="0%" stop-opacity="1" style="stop-color:rgb(255,0,255)"/><stop offset="100%" stop-opacity="1" style="stop-color:rgb(255,255,0)"/></linearGradient><rect x="0" y="0" width="64" height="64" transform="matrix(1,0,0,1,0,0)" fill="url(#_lgradient_5)"/><path d=" M 19 39 L 15 34 Q 5.499 31.977 14 22 Q 22.501 12.023 17 12 L 33 4 Q 53.871 4.147 50 11 Q 46.129 17.853 51 19 L 45 40 L 19 39 Z " fill="rgb(21,21,21)"/><path d=" M 18 35.276 C 18 25.741 24.273 18 32 18 C 39.727 18 46 25.741 46 35.276 C 46 44.81 39.727 52.551 32 52.551 C 24.273 52.551 18 44.81 18 35.276 Z " fill="rgb(92,74,56)"/><path d=" M 27.195 51.561 C 27.195 47.084 29.348 43.449 32 43.449 C 34.652 43.449 36.805 47.084 36.805 51.561 C 36.805 56.038 34.652 59.673 32 59.673 C 29.348 59.673 27.195 56.038 27.195 51.561 Z " fill="rgb(92,74,56)"/><path d=" M 57 64 C 57 58.627 45.798 54.265 32 54.265 C 18.202 54.265 7 58.627 7 64 L 57 64 Z " fill="rgb(58,111,106)"/><path d=" M 21 20 L 14 37 L 16 46 L 19 56 L 18 41 L 20 31 L 28 23 L 40 23 L 43 36 Q 47.712 44.56 50 44 C 52.288 43.44 52.349 43.517 50 41 Q 47.651 38.483 47 30 L 45 17 L 31 15 L 21 20 Z " fill="rgb(21,21,21)"/></g></svg>