<?xml version="1.0" standalone="no"?><!-- Generator: Gravit.io --><svg xmlns="http://www.w3.org/2000/svg" xmlns:xlink="http://www.w3.org/1999/xlink" style="isolation:isolate" viewBox="0 0 64 64" width="64" height="64"><defs><clipPath id="_clipPath_kIVJQPhxYclSm4kI79p1mBdS7TFIznwz"><rect width="64" height="64"/></clipPath></defs><g clip-path="url(#_clipPath_kIVJQPhxYclSm4kI79p1mBdS7TFIznwz)"><rect x="0" y="0" width="64" height="64" transform="matrix(1,0,0,1,0,0)" fill="rgb(151,255,151)"/><path d=" M 13 7 L 41 7 L 51 7 L 51 20 L 51 57 L 13 57 L 13 7 Z  M 41 7 L 51 20 L 51 7 L 41 7 Z " fill-rule="evenodd" fill="rgb(255,255,255)"/><g transform="matrix(1,0,0,1,15,20)"><text transform="matrix(1,0,0,1,0,3.207)" style="font-family:&quot;Open Sans&quot;;font-weight:400;font-size:3px;font-style:normal;fill:#9a9a9a;stroke:none;">Good 'ol Paper</text></g><g transform="matrix(1,0,0,1,15,25)"><text transform="matrix(1,0,0,1,0,1.069)" style="font-family:&quot;Open Sans&quot;;font-weight:400;font-size:1px;font-style:normal;fill:#656565;stroke:none;">Lorem ipsum dolor sit amet, consectetur adipiscing elit,sed do </text><text transform="matrix(1,0,0,1,0,2.431)" style="font-family:&quot;Open Sans&quot;;font-weight:400;font-size:1px;font-style:normal;fill:#656565;stroke:none;">eiusmod tempor incididunt ut labore et dolore magnaaliqua. Ut </text><text transform="matrix(1,0,0,1,0,3.792)" style="font-family:&quot;Open Sans&quot;;font-weight:400;font-size:1px;font-style:normal;fill:#656565;stroke:none;">enim ad minim veniam, quis nostrud exercitationullamco laboris </text><text transform="matrix(1,0,0,1,0,5.154)" style="font-family:&quot;Open Sans&quot;;font-weight:400;font-size:1px;font-style:normal;fill:#656565;stroke:none;">nisi ut aliquip ex ea commodo consequat.Duis aute irure dolor in </text><text transform="matrix(1,0,0,1,0,6.516)" style="font-family:&quot;Open Sans&quot;;font-weight:400;font-size:1px;font-style:normal;fill:#656565;stroke:none;">reprehenderit in voluptate velitesse cillum dolore eu fugiat nulla </text><text transform="matrix(1,0,0,1,0,7.878)" style="font-family:&quot;Open Sans&quot;;font-weight:400;font-size:1px;font-style:normal;fill:#656565;stroke:none;">pariatur. Excepteur sintoccaecat cupidatat non proident, sunt in </text><text transform="matrix(1,0,0,1,0,9.24)" style="font-family:&quot;Open Sans&quot;;font-weight:400;font-size:1px;font-style:normal;fill:#656565;stroke:none;">culpa qui officiadeserunt mollit anim id est laborum.ipsum dolor </text><text transform="matrix(1,0,0,1,0,10.602)" style="font-family:&quot;Open Sans&quot;;font-weight:400;font-size:1px;font-style:normal;fill:#656565;stroke:none;">sit amet.</text></g></g></svg>