<?xml version="1.0" standalone="no"?><!-- Generator: Gravit.io --><svg xmlns="http://www.w3.org/2000/svg" xmlns:xlink="http://www.w3.org/1999/xlink" style="isolation:isolate" viewBox="0 0 64 64" width="64" height="64"><defs><clipPath id="_clipPath_LDt1nfnxBrbqqLZi4zcautLpBFtUOw8V"><rect width="64" height="64"/></clipPath></defs><g clip-path="url(#_clipPath_LDt1nfnxBrbqqLZi4zcautLpBFtUOw8V)"><rect x="0" y="0" width="64" height="64" transform="matrix(1,0,0,1,0,0)" fill="rgb(135,124,180)"/><g id="Group"><g id="Group"><path d=" M 18.56 31.254 L 59.139 26.969 L 19.113 38.296 L 18.56 31.254 Z " fill="rgb(229,229,229)"/><path d=" M 17.694 30.754 Q 8.051 30.334 7.132 35.048 Q 6.213 39.762 11.694 41.146 C 15.002 41.712 17.738 40.993 19.89 38.95 L 22.39 34.62 Q 23.063 32.221 20.792 31.388 Q 18.521 30.554 17.694 30.754 Z  M 15.911 33.187 Q 11.365 32.985 10.934 35.204 Q 10.503 37.424 13.087 38.078 C 14.752 38.662 16.043 38.332 16.949 37.047 L 18.126 35.009 Q 18.442 33.88 17.371 33.487 Q 16.3 33.093 15.911 33.187 Z " fill-rule="evenodd" fill="rgb(149,210,149)"/></g><g id="Group"><path d=" M 28.828 45.671 L 46.145 8.724 L 22.353 42.846 L 28.828 45.671 Z " fill="rgb(229,229,229)"/><path d=" M 29.017 46.653 Q 26.261 55.904 21.506 55.231 Q 16.75 54.558 17.234 48.925 C 17.781 45.614 19.355 43.263 21.99 41.898 L 26.899 40.951 Q 29.386 41.099 29.431 43.518 Q 29.476 45.937 29.017 46.653 Z  M 26.135 47.543 Q 24.839 51.904 22.601 51.586 Q 20.363 51.268 20.59 48.612 C 20.582 46.847 21.316 45.735 22.826 45.299 L 25.137 44.854 Q 26.307 44.924 26.329 46.065 Q 26.351 47.205 26.135 47.543 Z " fill-rule="evenodd" fill="rgb(149,210,149)"/></g></g><path d=" M 32.069 32 C 32.069 31.448 32.518 31 33.069 31 C 33.621 31 34.069 31.448 34.069 32 C 34.069 32.552 33.621 33 33.069 33 C 32.518 33 32.069 32.552 32.069 32 Z " fill="rgb(210,210,210)"/></g></svg>